<?xml version="1.0" standalone="no"?>
<!DOCTYPE svg PUBLIC "-//W3C//DTD SVG 20010904//EN"
 "http://www.w3.org/TR/2001/REC-SVG-20010904/DTD/svg10.dtd">
<svg version="1.0" xmlns="http://www.w3.org/2000/svg"
 width="64.000000pt" height="64.000000pt" viewBox="0 0 64.000000 64.000000"
 preserveAspectRatio="xMidYMid meet">

<g transform="translate(0.000000,64.000000) scale(0.100000,-0.100000)"
  stroke="none">
<path d="M265 615 c-33 -32 -33 -78 -1 -110 l24 -24 -41 -3 c-29 -2 -42 -8
-42 -18 0 -11 13 -16 48 -18 l47 -3 0 -201 0 -200 -32 6 c-70 14 -146 88 -162
160 l-7 28 34 -21 c32 -19 47 -19 47 0 0 9 -100 79 -111 79 -9 0 -69 -106 -69
-120 0 -20 31 -9 42 15 13 28 28 33 28 10 0 -26 36 -88 72 -122 100 -96 256
-96 356 0 36 34 72 96 72 122 0 23 15 18 28 -10 11 -24 42 -35 42 -15 0 14
-60 120 -69 120 -11 0 -111 -70 -111 -79 0 -19 15 -19 47 0 l34 21 -7 -28
c-16 -72 -92 -146 -162 -160 l-32 -6 0 200 0 201 48 3 c34 2 47 7 47 18 0 10
-13 16 -42 18 l-41 3 24 24 c32 32 32 78 -1 110 -15 16 -36 25 -55 25 -19 0
-40 -9 -55 -25z m85 -30 c26 -32 -13 -81 -47 -59 -23 14 -28 41 -13 59 16 19
44 19 60 0z"/>
</g>
</svg>
